<svg xmlns="http://www.w3.org/2000/svg" viewBox="0 0 53.79 54.32" style=""><defs><style>.cls-1,.cls-2,.cls-3{fill:none;stroke-linecap:round;stroke-linejoin:round;stroke-width:2px;}.cls-1{stroke:#f0772f;}.cls-2{stroke:#e3436b;}.cls-3{stroke:#832388;}</style></defs><g id="Layer_2" data-name="Layer 2"><g id="Layer_1-2" data-name="Layer 1"><path class="cls-1 oXBMBLKC_0" d="M48.89,30.85v16a6.48,6.48,0,0,1-6.48,6.48H26.88"></path><path class="cls-1 oXBMBLKC_1" d="M1,30.83v16a6.49,6.49,0,0,0,6.48,6.48H23"></path><path class="cls-1 oXBMBLKC_2" d="M48.89,15.78L48.89,26.96"></path><path class="cls-1 oXBMBLKC_3" d="M26.88,4.48L37.92,4.48"></path><path class="cls-1 oXBMBLKC_4" d="M1,26.94V11A6.48,6.48,0,0,1,7.48,4.48H23"></path><path class="cls-1 oXBMBLKC_5" d="M39.56,28.31a14.08,14.08,0,0,0-.29-2.83,12.38,12.38,0,0,1,7.39-13.85c1.76-.71,3.69-.82,5-2.39a5,5,0,0,0,1.14-3.19,5.06,5.06,0,0,0-5.05-5,4.89,4.89,0,0,0-3,1c-1.25,1-1.64,2.38-2.1,3.82a14.42,14.42,0,0,1-1.9,3.88,12.4,12.4,0,0,1-6.89,5A10.48,10.48,0,0,1,30,15a38.2,38.2,0,0,0-4.26-.44A13.78,13.78,0,1,0,39.56,28.31Z"></path><path class="cls-1 oXBMBLKC_6" d="M18.04,28.17A7.9,7.9 0,1,1 33.84,28.17A7.9,7.9 0,1,1 18.04,28.17"></path><path class="cls-1 oXBMBLKC_7" d="M46.93,5.93A0.78,0.78 0,1,1 48.49,5.93A0.78,0.78 0,1,1 46.93,5.93"></path><path class="cls-2 oXBMBLKC_8" d="M48.9,30.85v16a6.48,6.48,0,0,1-6.48,6.48H26.89"></path><path class="cls-2 oXBMBLKC_9" d="M1,30.83v16a6.49,6.49,0,0,0,6.48,6.48H23"></path><path class="cls-2 oXBMBLKC_10" d="M48.9,15.78L48.9,26.96"></path><path class="cls-2 oXBMBLKC_11" d="M26.89,4.48L37.93,4.48"></path><path class="cls-2 oXBMBLKC_12" d="M1,26.94V11A6.48,6.48,0,0,1,7.49,4.48H23"></path><path class="cls-2 oXBMBLKC_13" d="M39.57,28.31a14.08,14.08,0,0,0-.29-2.83,12.38,12.38,0,0,1,7.39-13.85c1.77-.71,3.7-.82,5-2.39a5,5,0,0,0,1.14-3.19,5.06,5.06,0,0,0-5-5,4.89,4.89,0,0,0-3,1c-1.24,1-1.64,2.38-2.1,3.82a14.13,14.13,0,0,1-1.9,3.88,12.37,12.37,0,0,1-6.89,5,10.46,10.46,0,0,1-3.78.28,38.2,38.2,0,0,0-4.26-.44A13.78,13.78,0,1,0,39.57,28.31Z"></path><path class="cls-2 oXBMBLKC_14" d="M18.049999999999997,28.17A7.9,7.9 0,1,1 33.85,28.17A7.9,7.9 0,1,1 18.049999999999997,28.17"></path><path class="cls-2 oXBMBLKC_15" d="M46.94,5.93A0.78,0.78 0,1,1 48.5,5.93A0.78,0.78 0,1,1 46.94,5.93"></path><path class="cls-3 oXBMBLKC_16" d="M48.89,30.85v16a6.48,6.48,0,0,1-6.48,6.48H26.88"></path><path class="cls-3 oXBMBLKC_17" d="M1,30.83v16a6.49,6.49,0,0,0,6.48,6.48H23"></path><path class="cls-3 oXBMBLKC_18" d="M48.89,15.78L48.89,26.96"></path><path class="cls-3 oXBMBLKC_19" d="M26.88,4.48L37.92,4.48"></path><path class="cls-3 oXBMBLKC_20" d="M1,26.94V11A6.48,6.48,0,0,1,7.48,4.48H23"></path><path class="cls-3 oXBMBLKC_21" d="M39.56,28.31a14.08,14.08,0,0,0-.29-2.83,12.38,12.38,0,0,1,7.39-13.85c1.76-.71,3.69-.82,5-2.39a5,5,0,0,0,1.14-3.19,5.06,5.06,0,0,0-5.05-5,4.89,4.89,0,0,0-3,1c-1.25,1-1.64,2.38-2.1,3.82a14.42,14.42,0,0,1-1.9,3.88,12.4,12.4,0,0,1-6.89,5A10.48,10.48,0,0,1,30,15a38.2,38.2,0,0,0-4.26-.44A13.78,13.78,0,1,0,39.56,28.31Z"></path><path class="cls-3 oXBMBLKC_22" d="M18.04,28.17A7.9,7.9 0,1,1 33.84,28.17A7.9,7.9 0,1,1 18.04,28.17"></path><path class="cls-3 oXBMBLKC_23" d="M46.93,5.93A0.78,0.78 0,1,1 48.49,5.93A0.78,0.78 0,1,1 46.93,5.93"></path></g></g><style data-made-with="vivus-instant">.oXBMBLKC_0{stroke-dasharray:42 44;stroke-dashoffset:43;animation:oXBMBLKC_draw_0 4000ms linear 0ms infinite,oXBMBLKC_fade 4000ms linear 0ms infinite;}.oXBMBLKC_1{stroke-dasharray:42 44;stroke-dashoffset:43;animation:oXBMBLKC_draw_1 4000ms linear 0ms infinite,oXBMBLKC_fade 4000ms linear 0ms infinite;}.oXBMBLKC_2{stroke-dasharray:12 14;stroke-dashoffset:13;animation:oXBMBLKC_draw_2 4000ms linear 0ms infinite,oXBMBLKC_fade 4000ms linear 0ms infinite;}.oXBMBLKC_3{stroke-dasharray:12 14;stroke-dashoffset:13;animation:oXBMBLKC_draw_3 4000ms linear 0ms infinite,oXBMBLKC_fade 4000ms linear 0ms infinite;}.oXBMBLKC_4{stroke-dasharray:42 44;stroke-dashoffset:43;animation:oXBMBLKC_draw_4 4000ms linear 0ms infinite,oXBMBLKC_fade 4000ms linear 0ms infinite;}.oXBMBLKC_5{stroke-dasharray:131 133;stroke-dashoffset:132;animation:oXBMBLKC_draw_5 4000ms linear 0ms infinite,oXBMBLKC_fade 4000ms linear 0ms infinite;}.oXBMBLKC_6{stroke-dasharray:50 52;stroke-dashoffset:51;animation:oXBMBLKC_draw_6 4000ms linear 0ms infinite,oXBMBLKC_fade 4000ms linear 0ms infinite;}.oXBMBLKC_7{stroke-dasharray:5 7;stroke-dashoffset:6;animation:oXBMBLKC_draw_7 4000ms linear 0ms infinite,oXBMBLKC_fade 4000ms linear 0ms infinite;}.oXBMBLKC_8{stroke-dasharray:42 44;stroke-dashoffset:43;animation:oXBMBLKC_draw_8 4000ms linear 0ms infinite,oXBMBLKC_fade 4000ms linear 0ms infinite;}.oXBMBLKC_9{stroke-dasharray:42 44;stroke-dashoffset:43;animation:oXBMBLKC_draw_9 4000ms linear 0ms infinite,oXBMBLKC_fade 4000ms linear 0ms infinite;}.oXBMBLKC_10{stroke-dasharray:12 14;stroke-dashoffset:13;animation:oXBMBLKC_draw_10 4000ms linear 0ms infinite,oXBMBLKC_fade 4000ms linear 0ms infinite;}.oXBMBLKC_11{stroke-dasharray:12 14;stroke-dashoffset:13;animation:oXBMBLKC_draw_11 4000ms linear 0ms infinite,oXBMBLKC_fade 4000ms linear 0ms infinite;}.oXBMBLKC_12{stroke-dasharray:42 44;stroke-dashoffset:43;animation:oXBMBLKC_draw_12 4000ms linear 0ms infinite,oXBMBLKC_fade 4000ms linear 0ms infinite;}.oXBMBLKC_13{stroke-dasharray:131 133;stroke-dashoffset:132;animation:oXBMBLKC_draw_13 4000ms linear 0ms infinite,oXBMBLKC_fade 4000ms linear 0ms infinite;}.oXBMBLKC_14{stroke-dasharray:50 52;stroke-dashoffset:51;animation:oXBMBLKC_draw_14 4000ms linear 0ms infinite,oXBMBLKC_fade 4000ms linear 0ms infinite;}.oXBMBLKC_15{stroke-dasharray:5 7;stroke-dashoffset:6;animation:oXBMBLKC_draw_15 4000ms linear 0ms infinite,oXBMBLKC_fade 4000ms linear 0ms infinite;}.oXBMBLKC_16{stroke-dasharray:42 44;stroke-dashoffset:43;animation:oXBMBLKC_draw_16 4000ms linear 0ms infinite,oXBMBLKC_fade 4000ms linear 0ms infinite;}.oXBMBLKC_17{stroke-dasharray:42 44;stroke-dashoffset:43;animation:oXBMBLKC_draw_17 4000ms linear 0ms infinite,oXBMBLKC_fade 4000ms linear 0ms infinite;}.oXBMBLKC_18{stroke-dasharray:12 14;stroke-dashoffset:13;animation:oXBMBLKC_draw_18 4000ms linear 0ms infinite,oXBMBLKC_fade 4000ms linear 0ms infinite;}.oXBMBLKC_19{stroke-dasharray:12 14;stroke-dashoffset:13;animation:oXBMBLKC_draw_19 4000ms linear 0ms infinite,oXBMBLKC_fade 4000ms linear 0ms infinite;}.oXBMBLKC_20{stroke-dasharray:42 44;stroke-dashoffset:43;animation:oXBMBLKC_draw_20 4000ms linear 0ms infinite,oXBMBLKC_fade 4000ms linear 0ms infinite;}.oXBMBLKC_21{stroke-dasharray:131 133;stroke-dashoffset:132;animation:oXBMBLKC_draw_21 4000ms linear 0ms infinite,oXBMBLKC_fade 4000ms linear 0ms infinite;}.oXBMBLKC_22{stroke-dasharray:50 52;stroke-dashoffset:51;animation:oXBMBLKC_draw_22 4000ms linear 0ms infinite,oXBMBLKC_fade 4000ms linear 0ms infinite;}.oXBMBLKC_23{stroke-dasharray:5 7;stroke-dashoffset:6;animation:oXBMBLKC_draw_23 4000ms linear 0ms infinite,oXBMBLKC_fade 4000ms linear 0ms infinite;}@keyframes oXBMBLKC_draw{100%{stroke-dashoffset:0;}}@keyframes oXBMBLKC_fade{0%{stroke-opacity:1;}94.44444444444444%{stroke-opacity:1;}100%{stroke-opacity:0;}}@keyframes oXBMBLKC_draw_0{11.11111111111111%{stroke-dashoffset: 43}38.88888888888889%{ stroke-dashoffset: 0;}100%{ stroke-dashoffset: 0;}}@keyframes oXBMBLKC_draw_1{11.71497584541063%{stroke-dashoffset: 43}39.492753623188406%{ stroke-dashoffset: 0;}100%{ stroke-dashoffset: 0;}}@keyframes oXBMBLKC_draw_2{12.318840579710146%{stroke-dashoffset: 13}40.09661835748793%{ stroke-dashoffset: 0;}100%{ stroke-dashoffset: 0;}}@keyframes oXBMBLKC_draw_3{12.922705314009661%{stroke-dashoffset: 13}40.70048309178744%{ stroke-dashoffset: 0;}100%{ stroke-dashoffset: 0;}}@keyframes oXBMBLKC_draw_4{13.526570048309178%{stroke-dashoffset: 43}41.30434782608695%{ stroke-dashoffset: 0;}100%{ stroke-dashoffset: 0;}}@keyframes oXBMBLKC_draw_5{14.130434782608697%{stroke-dashoffset: 132}41.908212560386474%{ stroke-dashoffset: 0;}100%{ stroke-dashoffset: 0;}}@keyframes oXBMBLKC_draw_6{14.734299516908212%{stroke-dashoffset: 51}42.51207729468599%{ stroke-dashoffset: 0;}100%{ stroke-dashoffset: 0;}}@keyframes oXBMBLKC_draw_7{15.338164251207727%{stroke-dashoffset: 6}43.11594202898551%{ stroke-dashoffset: 0;}100%{ stroke-dashoffset: 0;}}@keyframes oXBMBLKC_draw_8{15.942028985507248%{stroke-dashoffset: 43}43.71980676328503%{ stroke-dashoffset: 0;}100%{ stroke-dashoffset: 0;}}@keyframes oXBMBLKC_draw_9{16.545893719806763%{stroke-dashoffset: 43}44.32367149758454%{ stroke-dashoffset: 0;}100%{ stroke-dashoffset: 0;}}@keyframes oXBMBLKC_draw_10{17.14975845410628%{stroke-dashoffset: 13}44.927536231884055%{ stroke-dashoffset: 0;}100%{ stroke-dashoffset: 0;}}@keyframes oXBMBLKC_draw_11{17.753623188405797%{stroke-dashoffset: 13}45.531400966183575%{ stroke-dashoffset: 0;}100%{ stroke-dashoffset: 0;}}@keyframes oXBMBLKC_draw_12{18.357487922705314%{stroke-dashoffset: 43}46.13526570048309%{ stroke-dashoffset: 0;}100%{ stroke-dashoffset: 0;}}@keyframes oXBMBLKC_draw_13{18.96135265700483%{stroke-dashoffset: 132}46.73913043478261%{ stroke-dashoffset: 0;}100%{ stroke-dashoffset: 0;}}@keyframes oXBMBLKC_draw_14{19.565217391304344%{stroke-dashoffset: 51}47.34299516908212%{ stroke-dashoffset: 0;}100%{ stroke-dashoffset: 0;}}@keyframes oXBMBLKC_draw_15{20.169082125603865%{stroke-dashoffset: 6}47.946859903381636%{ stroke-dashoffset: 0;}100%{ stroke-dashoffset: 0;}}@keyframes oXBMBLKC_draw_16{20.77294685990338%{stroke-dashoffset: 43}48.55072463768116%{ stroke-dashoffset: 0;}100%{ stroke-dashoffset: 0;}}@keyframes oXBMBLKC_draw_17{21.3768115942029%{stroke-dashoffset: 43}49.15458937198068%{ stroke-dashoffset: 0;}100%{ stroke-dashoffset: 0;}}@keyframes oXBMBLKC_draw_18{21.980676328502415%{stroke-dashoffset: 13}49.75845410628019%{ stroke-dashoffset: 0;}100%{ stroke-dashoffset: 0;}}@keyframes oXBMBLKC_draw_19{22.58454106280193%{stroke-dashoffset: 13}50.36231884057971%{ stroke-dashoffset: 0;}100%{ stroke-dashoffset: 0;}}@keyframes oXBMBLKC_draw_20{23.188405797101453%{stroke-dashoffset: 43}50.96618357487923%{ stroke-dashoffset: 0;}100%{ stroke-dashoffset: 0;}}@keyframes oXBMBLKC_draw_21{23.792270531400966%{stroke-dashoffset: 132}51.57004830917874%{ stroke-dashoffset: 0;}100%{ stroke-dashoffset: 0;}}@keyframes oXBMBLKC_draw_22{24.396135265700483%{stroke-dashoffset: 51}52.17391304347826%{ stroke-dashoffset: 0;}100%{ stroke-dashoffset: 0;}}@keyframes oXBMBLKC_draw_23{25%{stroke-dashoffset: 6}52.77777777777778%{ stroke-dashoffset: 0;}100%{ stroke-dashoffset: 0;}}</style></svg>